<?xml version="1.0" encoding="utf-8"?>
<svg version="1.1" id="Layer_1" xmlns="http://www.w3.org/2000/svg" xmlns:xlink="http://www.w3.org/1999/xlink" x="0px" y="0px"
	 viewBox="0 0 658 300" xml:space="preserve">
<style type="text/css">
	.st2{fill:none;stroke:#000000;stroke-width:9;stroke-linecap:round;stroke-linejoin:round;stroke-miterlimit:10;}
    .st1{fill:#FFFFFF;}
</style>
<path class="st1 st2" d="M350.2,263.5h-32.6c-67.7,0-234.5-25-234.5-81L74,99.6c0-18.5,24.2-45.1,46.5-45.1l135-15c65.3-9,106.8-9,166,2
	l119.7,13c22.3,0,54.4,16,53.8,45.1l-23.6,97.9C552.1,256.5,417.6,263.5,350.2,263.5z"/>
<line class="st2" x1="82.5" y1="77.5" x2="9.5" y2="8.5"/>
<line class="st2" x1="98.5" y1="210.5" x2="8.5" y2="288.5"/>
<line class="st2" x1="588.5" y1="77.5" x2="647.5" y2="8.5"/>
<line class="st2" x1="559.5" y1="216.5" x2="646.5" y2="287.5"/>
<path class="st2" d="M450.5,204.5c0,6.6-55.9,12-125,12s-125-5.4-125-12"/>
<path class="st2" d="M466.5,161.5c0,6.1-63.1,11-141,11s-141-4.9-141-11"/>
<path class="st2" d="M471.5,117.5c0,5-65.3,9-146,9s-146-4-146-9"/>
<path class="st2" d="M414.5,86.1c0-4.5-39.8-8.2-89-8.2s-89,3.7-89,8.2"/>
</svg>
